<?xml version="1.0" standalone="no"?>
<!DOCTYPE svg PUBLIC "-//W3C//DTD SVG 1.1//EN" "http://www.w3.org/Graphics/SVG/1.1/DTD/svg11.dtd">
<svg xmlns="http://www.w3.org/2000/svg">
<metadata>Generated by Fontastic.me</metadata>
<defs>
<font id="voter-guide-icons" horiz-adv-x="512">
<font-face font-family="voter-guide-icons" units-per-em="512" ascent="480" descent="-32"/>
<missing-glyph horiz-adv-x="512" />

<glyph unicode="&#97;" d="M274 161l13 11-64 84 64 84-13 11-72-95z m-18 317c-122 0-222-100-222-222 0-122 99-222 222-222 122 0 222 99 222 222 0 122-100 222-222 222z m0-429c-113 0-204 93-204 207 0 114 91 207 204 207 113 0 204-93 204-207 0-114-91-207-204-207z"/>
<glyph unicode="&#98;" d="M244 285c-1 1-3 1-4 0-2 0-2-2-2-3l0-49c0-2 0-3 2-4 0 0 1-1 2-1 0 0 1 1 2 1l34 25c1 0 1 2 1 3 0 1 0 3-1 3z m11 220c-138 0-250-111-250-249 0-138 112-249 250-249 138 0 249 111 249 249 0 138-111 249-249 249z m79-287c0 0-1-1-1-2 0 0 0 0 0 0-2-7-8-11-15-11l1 0c0 0-29-5-66-5-38 0-67 5-67 5l1 0c-7 0-13 4-15 11 0 0 0 0 0 0 0 1 0 2 0 2-1 8-3 22-3 40 0 17 2 32 3 39 0 1 0 2 0 2 0 1 0 1 0 1 2 6 8 11 15 11l-1 0c0 0 29 4 67 5 37-1 66-5 66-5l-1 0c7 0 13-4 15-11 0 0 0 0 0-1 0 0 0-1 1-2 1-7 2-22 3-39-1-18-2-32-3-40z"/>
<glyph unicode="&#99;" d="M224 512l-32-64-29-10-67 26-48-48 26-67-10-29-64-32 0-64 64-32c3-10 6-19 13-29l-29-67 48-48 67 26 29-10 32-64 64 0 32 64c10 3 19 6 29 13l67-26 48 48-26 67c4 10 10 20 13 29l61 29 0 64-64 32c-3 10-6 19-13 29l29 67-48 48-67-26-29 10-32 64z m32-160c54 0 96-42 96-96 0-54-42-96-96-96-54 0-96 42-96 96 0 54 42 96 96 96z"/>
<glyph unicode="&#100;" d="M256 505c-138 0-249-111-249-249 0-138 111-249 249-249 138 0 249 111 249 249 0 138-111 249-249 249z m36-249l-25 0c0-40 0-89 0-89l-37 0c0 0 0 49 0 89l-18 0 0 32 18 0 0 21c0 14 7 37 38 37l27 0 0-31c0 0-17 0-20 0-3 0-8-2-8-9l0-18 29 0z"/>
<glyph unicode="&#101;" d="M238 351l-13-11 64-84-64-84 13-11 72 95z m18-317c122 0 222 99 222 221 0 123-100 223-222 223-122 0-222-100-222-222 0-122 100-222 222-222z m0 429c113 0 204-93 204-207 0-114-91-207-204-207-113 0-204 93-204 207 0 114 91 207 204 207z"/>
<glyph unicode="&#102;" d="M116 176l64-64 104 104 32-36-136-136-100 92z m-36-128l0 56 56-56z m0 416l232 0 120-120 0-296-212 0 32 32 148 0 0 224-128 0 0 128-160 0 0-224-32-32z m224-40l0-88 88 0z"/>
<glyph unicode="&#103;" d="M227 229l34-34-56-56 56-57-34-33-56 56-56-56-35 33 56 56-56 57 34 33 56-56z m77 107l88 0-88 88z m96-32l-128 0 0 128-160 0 0-176-32-32 0 240 232 0 120-120 0-296-176 0 32 32 112 0z"/>
<glyph unicode="&#104;" d="M422 336l-20 0c0 82-69 142-149 142-80 0-145-60-145-142l-17 0c0 0-33 7-33-29l0-236c0 0-12-37 30-37l334 0c0 0 33 3 33 37l0 225c1 0 3 40-33 40z m-131-249l-70-1c0 0 23 90 17 92-20 7-35 28-35 51 0 30 24 54 52 54 29 0 52-24 52-54 0-23-14-42-33-50-3-1 17-92 17-92z m-148 249c0 64 51 108 114 108 63 0 113-44 113-108z"/>
<glyph unicode="&#105;" d="M256 512c-96 0-174-78-174-174 0-2 0-4 0-6 1-18 5-36 10-52 38-121 164-280 164-280 0 0 126 159 163 280 6 16 10 34 10 52 0 2 0 4 0 6 1 96-77 174-173 174z m0-259c-47 0-85 38-85 85 0 48 38 85 85 85 47 0 85-37 85-85 0-46-38-85-85-85z"/>
<glyph unicode="&#106;" d="M252 505c-138 0-249-111-249-249 0-138 111-249 249-249 138 0 249 111 249 249 0 138-111 249-249 249z m-50-326l-33 0 0 106 33 0z m-17 120c-12 0-20 8-20 18 0 10 8 18 20 18 12 0 20-8 20-18 0-10-8-18-20-18z m151-120l-38 0 0 55c0 14-6 24-19 24-10 0-16-7-18-13-1-3-1-6-1-9l0-57-37 0c0 0 0 97 0 106l37 0 0-17c2 8 14 18 33 18 24 0 43-15 43-48z"/>
<glyph unicode="&#107;" d="M295 258c0-25-21-46-46-46-25 0-46 20-46 46 0 6 1 12 3 17l-25 0 0-69c0-9 8-16 16-16l103 0c9 0 16 7 16 16l0 69-25 0c3-5 4-11 4-17z m19 36l0 28-29 0 0-28z m-65-66c16 0 30 14 30 30 0 7-3 12-6 17-5 8-14 13-24 13-10 0-18-5-24-13-3-5-5-10-5-17-1-16 13-30 29-30z m6 277c-138 0-250-111-250-249 0-138 112-249 250-249 138 0 249 111 249 249 0 138-111 249-249 249z m78-230l0-69c0-17-15-32-33-32l-103 0c-17 0-32 14-32 32l0 103c0 18 14 33 32 33l103 0c18 0 33-15 33-33z"/>
<glyph unicode="&#108;" d="M452 482l-392 0c-17 0-30-13-30-30l0-393c0-17 13-30 30-30l393 0c17 0 30 13 30 30l0 393c-1 17-14 30-31 30z m-196-81c6 7 13 10 22 10 6 0 12-2 16-7 5-5 7-10 7-17 0-9-3-17-9-23-6-7-13-11-22-11-6 0-12 3-17 7-4 5-6 11-6 18 0 10 3 17 9 23z m44-248c-22-20-37-33-48-39-10-6-20-9-27-9-8 0-14 3-19 8-4 4-6 11-6 19 0 20 11 67 34 143 1 1 1 3 2 4-2-1-3-1-4-2-2-1-7-6-25-23-2-2-6-2-9 0l-11 8c-1 1-2 3-3 5 0 2 1 4 2 5 16 18 31 31 44 38 14 8 26 12 36 12 7 0 13-1 16-5 4-4 7-9 7-14 0-5-2-14-16-59-19-65-24-88-24-96 4 2 13 8 31 26 3 2 7 2 10 0l10-9c1-2 2-3 2-5 0-3-1-5-2-7z"/>
<glyph unicode="&#109;" d="M237 229c-4 1-9 2-14 2-21 0-39-13-39-28 0-16 15-29 36-29 29 0 39 12 39 28 0 2 0 4 0 5-2 10-11 14-22 22z m9 71c-2 18-15 33-29 33-14 1-24-13-21-32 2-18 15-33 29-34 14 0 24 14 21 33z m9 205c-138 0-250-111-250-249 0-138 112-249 250-249 138 0 249 111 249 249 0 138-111 249-249 249z m-35-340c-30 0-56 12-56 32 0 20 24 39 54 39 3 0 6 0 9 0-4 4-7 9-7 15 0 4 1 7 3 10-2 0-3 0-5 0-25 0-42 18-42 40 0 21 24 40 48 40l54 0-12-9-17 0c11-5 17-18 17-32 0-11-6-21-15-28-9-7-11-10-11-16 0-5 10-13 15-17 14-10 19-19 19-35-1-19-20-39-54-39z m114 83l-22 0 0-21-17 0 0 21-21 0 0 17 21 0 0 21 17 0 0-21 22 0z"/>
<glyph unicode="&#110;" d="M97 462c0-26-21-47-47-47-26 0-47 21-47 47 0 26 21 47 47 47 26 0 47-21 47-47z m272-78l-154-236-77 77-20-20 102-103 174 267z"/>
<glyph unicode="&#111;" d="M255 475l75-136 152-29-106-114 19-154-140 66-141-66 19 154-105 114 152 29 75 136"/>
<glyph unicode="&#112;" d="M178 359c-32 0-59-22-59-46 0-11 8-18 19-18 13 0 17 9 21 16 3 8 6 15 20 15 12 0 19-6 19-17 0-9-8-15-17-22-11-8-24-18-24-35 0-9 7-19 19-19 13 0 16 8 19 14 1 3 1 5 3 7 2 3 6 6 11 10 14 9 32 22 32 45 0 37-34 50-63 50z m-1-134c-13 0-23-10-23-23 0-13 10-23 23-23 12 0 23 10 23 23 0 13-11 23-23 23z m148 22c-8 0-14-6-14-14 0-7 6-13 14-13 8 0 14 6 14 13 0 8-6 14-14 14z m52-14c0-8-6-14-13-14-8 0-14 6-14 14 0 8 6 14 14 14 7 0 13-6 13-14z m25 14c-8 0-14-6-14-14 0-7 6-13 14-13 8 0 14 6 14 13 0 8-6 14-14 14z m70-69c27 49 16 110-25 147-22 20-51 31-81 31-15 0-30-3-44-8 0 0-1 0-1 0-6 9-12 18-19 26-31 34-74 53-120 53-39 0-76-14-104-40-53-49-66-129-31-193l-15-48c-1-5 0-10 3-14 4-3 9-6 14-5l48 10c27-19 59-29 91-29 34 0 65 10 92 30l2 1c22-19 50-29 79-29 24 0 49 8 69 21l35-7c1 0 2 0 2 0 5 0 9 1 11 5 4 3 5 9 3 14z m-283-40c-28 0-56 9-79 27-3 2-8 3-12 2l-30-6 8 30c1 5 1 9-1 12-31 53-22 121 23 162 23 21 53 32 84 32 37 0 73-16 98-44 6-6 10-13 15-19-8-6-15-12-22-19-37-42-43-105-11-151 0-1 1-2 1-2l0-1c-22-15-47-23-74-23z m253 38l5-17-17 3c-4 1-8 0-12-3-16-12-36-19-57-19-22 0-44 8-60 24-1 0-2 1-3 2-5 5-10 11-13 16-22 35-18 82 10 113 6 6 12 11 19 16 6 4 12 7 19 10 11 4 22 6 33 6 23 0 45-9 61-24 32-29 39-78 16-116-2-3-2-8-1-11z"/>
<glyph unicode="&#113;" d="M255 505c-138 0-250-111-250-249 0-138 112-249 250-249 138 0 249 111 249 249 0 138-111 249-249 249z m65-208c0-1 0-3 0-5 0-52-37-113-105-113-21 0-40 7-57 18 3 0 6-1 9-1 18 0 33 7 46 17-16 1-29 12-34 28 2 0 4-1 7-1 3 0 6 1 9 2-16 3-29 19-29 38 0 1 0 1 0 1 5-3 10-5 16-5-9 7-16 19-16 33 0 7 2 14 5 20 18-24 45-40 76-41 0 2-1 6-1 8 0 22 17 40 37 40 11 0 20-5 27-13 8 2 16 6 23 10-2-9-8-17-16-22 8 1 15 3 21 6-5-7-11-14-18-20z"/>
<glyph unicode="&#114;" d="M237 478c-16 0-14-5-22-6-9-1 1 1-24-4-26-5-35-37-36-49-1-12-2-46-1-64 2-11-6-11-6-11-15 1-8-47-8-47 2-11-1-17 21-26 11-30 39-46 39-46 0 0 1-20 2-34-3 1 7-35-63-46-71-10-84-33-98-45-13-13-12-71-12-71l454 0c0 0-3 58-16 71-14 12-28 35-98 45-71 11-58 47-59 49 0 5 3 29 3 29 0 0 23 18 33 49 17 11 24 12 27 24 0 0 5 47-13 47 0 0-8-1-5 10 2 10 1 45 0 57-1 12 3 46-23 51-18 3-20-2-28 0-9 1-19 23-35 23z"/>
<glyph unicode="&#115;" d="M386 146c-60 22-80 41-80 81 0 24 19 16 27 60 4 18 20 1 23 42 0 17-9 21-9 21 0 0 5 25 6 44 3 23-13 84-98 84-84 0-100-61-98-84 2-19 7-44 7-44 0 0-9-4-9-21 3-41 19-23 23-42 8-44 27-36 27-60 0-40-20-59-81-81-61-22-100-44-100-60 0-15 0-52 0-52l463 0c0 0 0 37 0 52 0 16-40 38-101 60z"/>
<glyph unicode="&#116;" d="M255 505c-138 0-250-111-250-249 0-138 112-249 250-249 138 0 249 111 249 249 0 138-111 249-249 249z m50-276c-24-30-43-45-59-45-10 0-19 9-25 27-5 17-10 34-14 51-5 18-11 27-17 27-1 0-5-3-13-8l-8 10c8 8 16 15 25 22 11 10 19 15 25 15 13 2 21-7 24-27 4-21 6-33 7-38 4-18 8-26 13-26 4 0 9 5 16 16 7 12 11 20 11 26 1 10-2 14-11 14-4 0-9-1-13-2 9 27 25 40 48 39 18 0 26-12 25-34-1-16-12-39-34-67z"/>
<glyph unicode="&#117;" d="M256 512c-138 0-249-112-249-249 0-138 111-250 249-250 138 0 249 112 249 250 0 137-111 249-249 249z m-56-293c-26 0-48 22-48 48 0 27 22 48 48 48l45 0c0 0 1 0 2 0 4 0 8-1 12-2 10-3 18-9 24-17 2-2 3-4 4-6 1-2 2-4 3-6 2-5 3-11 3-16 0-6-1-11-3-16l-18 0c-1 0-2 0-3 0 3 4 5 10 5 15 0 6-2 11-5 16-1 2-3 3-5 5-1 2-3 3-5 4-5 3-9 4-14 4l-45 0c-16 0-29-13-29-29 0-16 13-29 29-29l19 0c4-7 10-14 16-19z m117 0l-44 0c-1 0-2 0-3 0-4 0-8 1-11 2-10 3-19 9-25 17-1 2-3 4-4 6-1 2-2 4-3 6-1 5-3 11-3 17 0 5 2 11 3 16l18 0c1 0 2 0 3-1-3-4-4-10-4-15 0-6 1-11 4-16 2-2 3-3 5-5 2-2 4-3 6-4 4-3 9-4 14-4l44 0c16 0 29 13 29 29 0 16-13 29-29 29l-19 0c-4 8-9 14-16 19l35 0c27 0 48-21 48-48 0-27-21-48-48-48z"/>
</font>
</defs>
</svg>
